<svg xmlns="http://www.w3.org/2000/svg" viewBox="0 0 32 32"><rect width="32" height="32" rx="7" fill="#1A1917"/><path fill="#fff" d="M10.57 24.21Q9.03 24.21 7.85 23.65Q6.66 23.08 5.93 21.99Q5.2 20.91 5.04 19.36H7.32Q7.53 20.84 8.35 21.61Q9.18 22.38 10.54 22.38Q11.8 22.38 12.56 21.69Q13.31 21 13.31 19.79Q13.31 18.54 12.58 17.77Q11.85 16.99 10.47 16.99H8.77V15.2H10.41Q11.64 15.2 12.3 14.55Q12.97 13.9 12.97 12.83Q12.97 11.74 12.31 11.12Q11.66 10.5 10.46 10.5Q9.32 10.5 8.51 11.18Q7.69 11.85 7.53 13.13H5.24Q5.38 11.76 6.07 10.76Q6.76 9.77 7.9 9.22Q9.05 8.67 10.52 8.67Q11.96 8.67 13.05 9.16Q14.13 9.64 14.73 10.54Q15.33 11.43 15.33 12.65Q15.33 13.72 14.85 14.53Q14.37 15.34 13.57 15.8Q12.78 16.25 11.82 16.25L11.73 15.81Q12.95 15.81 13.84 16.35Q14.73 16.88 15.21 17.79Q15.7 18.71 15.7 19.88Q15.7 21.18 15.04 22.16Q14.38 23.14 13.22 23.67Q12.07 24.21 10.57 24.21ZM16.63 24V22.18Q18.83 20.37 20.31 19.02Q21.79 17.67 22.68 16.63Q23.56 15.59 23.94 14.72Q24.32 13.85 24.32 13Q24.32 11.83 23.64 11.17Q22.95 10.5 21.75 10.5Q20.5 10.5 19.73 11.22Q18.95 11.95 18.78 13.27H16.49Q16.71 11.18 18.13 9.93Q19.55 8.67 21.88 8.67Q24.1 8.67 25.4 9.84Q26.69 11.01 26.69 13.07Q26.69 14.14 26.3 15.17Q25.92 16.21 25.03 17.34Q24.14 18.46 22.66 19.82Q21.19 21.17 19.01 22.89L18.48 22.17H26.96V24Z"/></svg>
